:FULLY-SPECIFIED
:FORCE-ALL-JOINTS-BE-3DOF
:DEGREES
883
root 3.8768 16.4585 30.5982 -8.64097 19.5784 360.142
lfemur -18.7678 17.0343 -19.2664
ltibia 42.4714 0 0
lfoot -12.4756 -11.8845 0
ltoes 12.916 0 0
rfemur -52.1004 -15.4525 19.5056
rtibia 61.7491 0 0
rfoot 3.84847 0.840448 0
rtoes -3.38816 0 0
lowerback 10.4792 -2.045 -5.17002
upperback 3.11398 -3.34176 -1.93576
thorax -2.406 -1.65013 1.23727
lowerneck -7.35649 -4.42997 0.723849
upperneck 5.08609 -6.30691 4.39732
head 3.09255 -2.95039 0.985281
lclavicle 1.5579e-14 6.48934e-15 0
lhumerus -41.3787 -32.6777 93.1833
lradius 61.8348 0 0
lwrist 18.8537 0 0
lhand 20.0043 9.79409 0
lfingers 7.12502 0 0
lthumb 44.437 32.7003 0
rclavicle 1.5579e-14 6.48934e-15 0
rhumerus -47.6637 -4.26942 -64.0285
rradius 79.1525 0 0
rwrist -1.07744 0 0
rhand 5.6652 -19.5494 0
rfingers 7.12502 0 0
rthumb 31.0007 -766.918 0
884
root 3.8652 16.4548 30.6593 -8.24919 19.8811 360.099
lfemur -19.2129 17.6406 -19.2023
ltibia 42.8263 0 0
lfoot -12.683 -11.1347 0
ltoes 12.5465 0 0
rfemur -50.8982 -15.4139 18.5017
rtibia 63.4188 0 0
rfoot 4.18771 -0.263484 0
rtoes -1.23162 0 0
lowerback 10.137 -2.11222 -5.09985
upperback 2.97974 -3.40782 -1.92376
thorax -2.35781 -1.68289 1.2057
lowerneck -7.34543 -4.55193 0.588446
upperneck 5.06991 -6.45795 4.4276
head 3.09503 -3.0275 1.0109
lclavicle 1.35006e-14 5.87375e-15 0
lhumerus -41.9125 -33.1195 94.1181
lradius 61.8344 0 0
lwrist 18.4875 0 0
lhand 20.5962 10.1761 0
lfingers 7.12502 0 0
lthumb 44.9858 32.8522 0
rclavicle 1.35006e-14 5.87375e-15 0
rhumerus -47.5187 -3.78577 -65.3597
rradius 81.031 0 0
rwrist -1.47295 0 0
rhand 5.8404 -19.0252 0
rfingers 7.12502 0 0
rthumb 31.1676 -766.361 0
885
root 3.85361 16.451 30.7203 -7.85742 20.1837 360.055
lfemur -19.658 18.2469 -19.1382
ltibia 43.1812 0 0
lfoot -12.8904 -10.3848 0
ltoes 12.177 0 0
rfemur -49.6959 -15.3752 17.4979
rtibia 65.0884 0 0
rfoot 4.52696 -1.36742 0
rtoes 0.924919 0 0
lowerback 9.79476 -2.17944 -5.02967
upperback 2.84549 -3.47389 -1.91176
thorax -2.30962 -1.71566 1.17412
lowerneck -7.33436 -4.67388 0.453044
upperneck 5.05373 -6.60899 4.45788
head 3.09751 -3.10462 1.03651
lclavicle 1.14221e-14 5.25816e-15 0
lhumerus -42.4463 -33.5614 95.053
lradius 61.834 0 0
lwrist 18.1213 0 0
lhand 21.1881 10.5581 0
lfingers 7.12502 0 0
lthumb 45.5347 33.0041 0
rclavicle 1.14221e-14 5.25816e-15 0
rhumerus -47.3738 -3.30213 -66.6909
rradius 82.9094 0 0
rwrist -1.86847 0 0
rhand 6.0156 -18.5011 0
rfingers 7.12502 0 0
rthumb 31.3346 -765.805 0
886
root 3.84201 16.4473 30.7814 -7.46564 20.4864 360.012
lfemur -20.1031 18.8531 -19.0741
ltibia 43.5361 0 0
lfoot -13.0977 -9.63496 0
ltoes 11.8075 0 0
rfemur -48.4937 -15.3366 16.4941
rtibia 66.7581 0 0
rfoot 4.8662 -2.47135 0
rtoes 3.08146 0 0
lowerback 9.45255 -2.24666 -4.9595
upperback 2.71125 -3.53995 -1.89976
thorax -2.26143 -1.74842 1.14255
lowerneck -7.3233 -4.79584 0.317641
upperneck 5.03755 -6.76003 4.48816
head 3.09999 -3.18173 1.06213
lclavicle 9.34372e-15 4.64257e-15 0
lhumerus -42.9801 -34.0032 95.9878
lradius 61.8336 0 0
lwrist 17.7551 0 0
lhand 21.78 10.9401 0
lfingers 7.12502 0 0
lthumb 46.0835 33.156 0
rclavicle 9.34372e-15 4.64257e-15 0
rhumerus -47.2288 -2.81848 -68.0221
rradius 84.7879 0 0
rwrist -2.26398 0 0
rhand 6.1908 -17.9769 0
rfingers 7.12502 0 0
rthumb 31.5015 -765.248 0
887
root 3.83041 16.4435 30.8424 -7.07387 20.7891 359.969
lfemur -20.5483 19.4594 -19.01
ltibia 43.891 0 0
lfoot -13.3051 -8.8851 0
ltoes 11.4379 0 0
rfemur -47.2915 -15.298 15.4903
rtibia 68.4278 0 0
rfoot 5.20544 -3.57528 0
rtoes 5.238 0 0
lowerback 9.11034 -2.31388 -4.88932
upperback 2.577 -3.60602 -1.88776
thorax -2.21324 -1.78118 1.11097
lowerneck -7.31224 -4.9178 0.182238
upperneck 5.02137 -6.91107 4.51844
head 3.10247 -3.25885 1.08774
lclavicle 7.26529e-15 4.02698e-15 0
lhumerus -43.5139 -34.445 96.9226
lradius 61.8331 0 0
lwrist 17.389 0 0
lhand 22.3719 11.3221 0
lfingers 7.12502 0 0
lthumb 46.6323 33.3079 0
rclavicle 7.26529e-15 4.02698e-15 0
rhumerus -47.0838 -2.33483 -69.3533
rradius 86.6663 0 0
rwrist -2.65949 0 0
rhand 6.366 -17.4528 0
rfingers 7.12502 0 0
rthumb 31.6685 -764.692 0
888
root 3.81882 16.4397 30.9035 -6.6821 21.0917 359.926
lfemur -20.9934 20.0657 -18.9459
ltibia 44.2459 0 0
lfoot -13.5125 -8.13524 0
ltoes 11.0684 0 0
rfemur -46.0893 -15.2594 14.4864
rtibia 70.0974 0 0
rfoot 5.54468 -4.67921 0
rtoes 7.39454 0 0
lowerback 8.76813 -2.3811 -4.81915
upperback 2.44276 -3.67208 -1.87576
thorax -2.16506 -1.81394 1.07939
lowerneck -7.30117 -5.03976 0.0468348
upperneck 5.0052 -7.0621 4.54872
head 3.10495 -3.33596 1.11336
lclavicle 5.18687e-15 3.41139e-15 0
lhumerus -44.0477 -34.8868 97.8574
lradius 61.8327 0 0
lwrist 17.0228 0 0
lhand 22.9639 11.7041 0
lfingers 7.12502 0 0
lthumb 47.1812 33.4598 0
rclavicle 5.18687e-15 3.41139e-15 0
rhumerus -46.9388 -1.85118 -70.6845
rradius 88.5447 0 0
rwrist -3.05501 0 0
rhand 6.54119 -16.9287 0
rfingers 7.12502 0 0
rthumb 31.8354 -764.135 0
889
root 3.80722 16.436 30.9645 -6.29032 21.3944 359.883
lfemur -21.4385 20.6719 -18.8818
ltibia 44.6009 0 0
lfoot -13.7199 -7.38538 0
ltoes 10.6989 0 0
rfemur -44.887 -15.2208 13.4826
rtibia 71.7671 0 0
rfoot 5.88392 -5.78315 0
rtoes 9.55107 0 0
lowerback 8.42593 -2.44832 -4.74897
upperback 2.30851 -3.73815 -1.86376
thorax -2.11687 -1.84671 1.04782
lowerneck -7.29011 -5.16172 -0.0885681
upperneck 4.98902 -7.21314 4.579
head 3.10743 -3.41307 1.13898
lclavicle 3.10845e-15 2.7958e-15 0
lhumerus -44.5815 -35.3286 98.7922
lradius 61.8323 0 0
lwrist 16.6566 0 0
lhand 23.5558 12.0861 0
lfingers 7.12502 0 0
lthumb 47.73 33.6116 0
rclavicle 3.10845e-15 2.7958e-15 0
rhumerus -46.7939 -1.36753 -72.0157
rradius 90.4232 0 0
rwrist -3.45052 0 0
rhand 6.71639 -16.4045 0
rfingers 7.12502 0 0
rthumb 32.0023 -763.579 0
